<?xml version="1.0" encoding="UTF-8"?>
<svg version="1.1" viewBox="0 0 1600 1600" width="1280" height="1280" xmlns="http://www.w3.org/2000/svg">
<path transform="translate(796 87.9)" d="m0 0c2.76 0.00273 5.52 0.00454 8.28 0.00633 83.1 0.0547 83.1 0.0547 121 1.12 0.76 0.0214 1.52 0.0427 2.3 0.0647 67.5 1.91 135 4.97 202 9.5 0.755 0.0505 1.51 0.101 2.29 0.153 16.8 1.12 33.5 2.37 50.2 3.82 0.696 0.0599 1.39 0.12 2.11 0.182 78.1 6.76 149 36.6 207 90.3 1.05 0.951 2.1 1.9 3.16 2.85 4.96 4.46 9.75 8.91 14 14 2.18 2.55 4.5 4.94 6.81 7.36 16.2 17.4 29.2 37.9 40.8 58.5 0.772 1.37 1.55 2.74 2.33 4.11 28.2 49 37 105 40.9 160 0.168 2.37 0.336 4.74 0.504 7.1 4.42 62.9 7.93 126 10.1 189 0.0948 2.76 0.191 5.52 0.287 8.28 1.73 49.8 2.37 99.7 2.31 150-0.00354 3.28-0.00626 6.57-0.0085 9.85-0.053 77.1-0.053 77.1-1.06 112-0.065 2.27-0.129 4.55-0.193 6.82-2.42 85.4-6.42 171-54.8 400-0.802 1.45-1.59 2.91-2.37 4.38-3.5 6.56-7.33 12.8-11.5 18.9-0.923 1.37-0.923 1.37-1.86 2.77-9.74 14.4-20.6 27.7-32.3 40.5-1.91 2.12-3.77 4.28-5.61 6.46-2.82 3.23-5.83 6.02-9.11 8.79-2.28 1.98-4.47 4.05-6.67 6.13-8.07 7.63-16.7 14.3-25.7 20.9-0.594 0.446-1.19 0.892-1.8 1.35-82.8 62.1-182 65-445 77.6-2.1 0.0622-4.19 0.125-6.29 0.188-101 3-202 1.18-450-10.9-3.42-0.253-6.84-0.502-10.3-0.75-39.9-2.91-79-6.34-117-19.5-0.844-0.286-1.69-0.571-2.56-0.866-22.7-7.72-43.9-17.8-64.4-30.1-1.04-0.624-2.08-1.25-3.15-1.89-12.1-7.52-23.9-16-34.8-25.1-0.924-0.74-1.85-1.48-2.8-2.24-8.68-7.07-16.6-14.9-24.5-22.8-0.839-0.832-0.839-0.832-1.7-1.68-7.13-7.08-13.8-14.3-20-22.3-0.578-0.729-1.16-1.46-1.75-2.21-11.7-14.8-22-30.3-31.2-46.8-0.38-0.672-0.76-1.34-1.15-2.04-16.1-28.7-27.7-60.6-33.8-93-0.176-0.876-0.352-1.75-0.533-2.65-3.26-16.3-4.91-32.7-6.29-49.2-0.175-2.09-0.353-4.19-0.532-6.28-5.5-65.1-8.74-130-11.2-196-0.0948-2.54-0.191-5.08-0.287-7.62-0.446-11.8-0.841-23.7-1.19-35.5-0.0383-1.31-0.0383-1.31-0.0775-2.65-1.17-40.5-1.08-81.1-1.05-122 0.00377-6.41 0.00241-12.8-0.0018-19.2-0.0357-56 0.558-112 2.81-168 0.132-3.29 0.263-6.58 0.394-9.87 2.05-51.5 4.74-103 8.49-154 0.0505-0.695 0.101-1.39 0.153-2.11 1.12-15.4 2.37-30.8 3.85-46.2 0.123-1.28 0.245-2.55 0.372-3.86 0.969-9.84 2.15-19.6 4.06-29.3 0.178-0.919 0.357-1.84 0.541-2.78 10.9-54.6 35.6-105 70.8-148 0.559-0.683 1.12-1.37 1.69-2.07 3.32-3.99 6.8-7.7 10.5-11.3 1.5-1.42 1.5-1.42 2.4-3.45h2c0.235-0.561 0.469-1.12 0.711-1.7 4.28-7.65 12.6-13.7 19.3-19.3 1.35-1.18 1.35-1.18 2.72-2.38 43.7-38 98.1-64.7 155-75.4 0.97-0.183 1.94-0.365 2.94-0.554 21.7-3.81 43.8-5.43 65.7-6.98 2.24-0.158 4.47-0.319 6.71-0.48 26.3-1.89 52.6-3.68 78.9-5.18 1.04-0.0597 2.07-0.119 3.14-0.181 32.1-1.85 64.3-3.21 96.5-4.35 2.65-0.0941 5.3-0.19 7.96-0.287 53.4-1.93 107-2.37 160-2.31zm-152 76.1c-2.65 0.0855-5.29 0.171-7.94 0.257-15.7 0.511-31.4 1.08-47.1 1.74-1.11 0.0464-2.21 0.0929-3.35 0.141-33.3 1.41-66.6 3.43-99.9 5.66-2.88 0.193-5.77 0.385-8.65 0.577-18.6 1.24-37.1 2.54-55.6 4.22-1.01 0.0917-1.01 0.0917-2.05 0.185-71.3 6.5-136 39-183 94.1-2.22 2.75-4.35 5.57-6.43 8.44-1.22 1.68-2.47 3.35-3.71 5.01-10.1 13.6-18.2 28.3-25.5 43.6-0.332 0.691-0.665 1.38-1.01 2.1-5.87 12.3-10.3 24.8-14 37.9-0.271 0.931-0.542 1.86-0.821 2.82-15.8 55.5-14 120-17 177-0.176 3.28-0.357 6.55-0.539 9.83-4.93 89.4-6.16 179-3.72 394 0.0847 2.34 0.168 4.68 0.251 7.02 0.765 21.4 1.65 42.9 2.65 64.3 0.174 3.76 0.345 7.52 0.516 11.3 1.4 30.6 3.35 61.2 5.41 91.7 0.189 2.81 0.375 5.62 0.56 8.44 1.24 18.7 2.62 37.3 4.74 55.9 0.0804 0.716 0.161 1.43 0.244 2.17 1.37 12 3.5 23.8 6.71 35.4 0.224 0.835 0.448 1.67 0.679 2.53 14.2 52.4 45.9 102 89.3 135 0.953 0.77 1.91 1.54 2.89 2.33 49 39 106 51.5 166 56.4 2.53 0.205 5.06 0.414 7.59 0.623 73.7 6.05 148 9.16 240 11.6 1.89 0.0454 1.89 0.0454 3.81 0.0918 69.2 1.63 139 1.76 208-0.00323 3.69-0.0931 7.39-0.181 11.1-0.268 84.3-2.01 168-6.25 252-12.9 1.43-0.112 1.43-0.112 2.88-0.225 73.3-5.79 140-34.6 190-90.5 2.22-2.69 4.39-5.43 6.53-8.19 0.776-0.959 1.55-1.92 2.35-2.91 21.3-26.8 36.3-58.2 45.6-91.1 0.223-0.783 0.446-1.57 0.675-2.37 3-10.8 4.89-21.7 6.32-32.8 0.0856-0.666 0.171-1.33 0.259-2.02 1.89-14.9 3.08-29.8 4.1-44.7 0.15-2.19 0.304-4.39 0.459-6.58 2.36-33.5 4.32-66.9 6.08-100 0.108-2.05 0.217-4.11 0.327-6.16 2.54-47.6 3.86-95.2 4.78-143 0.023-1.18 0.023-1.18 0.0464-2.38 1.23-63.2 1.25-126-0.0464-190-0.0146-0.719-0.0291-1.44-0.0442-2.18-1.8-88.7-5.79-177-57-405-0.605-0.909-1.21-1.82-1.83-2.75-1.68-2.45-3.41-4.85-5.17-7.25-0.748-1.01-1.5-2.03-2.27-3.07-5.03-6.73-10.4-13-16.1-19.1-2.32-2.49-4.56-5.02-6.79-7.6-3.65-4.12-7.6-7.66-11.8-11.2-0.946-0.822-1.89-1.64-2.87-2.49-14.1-12.2-29-22.2-45.1-31.5-0.633-0.372-1.27-0.744-1.92-1.13-47-27.5-100-31.1-153-34.6-2.88-0.193-5.76-0.386-8.63-0.58-54.5-3.67-109-6.47-164-8.36-1.33-0.0462-1.33-0.0462-2.69-0.0934-12.1-0.419-24.2-0.801-36.3-1.15-2.55-0.073-5.1-0.148-7.65-0.224-36.4-1.06-72.7-1.04-109-1.04-5.85-3.01e-4 -11.7-0.00842-17.6-0.0207-47.8-0.098-95.5 0.642-143 2.21z" fill="#000002"/>
<path transform="translate(460 848)" d="m0 0c2.06-0.00243 4.11-0.00616 6.17-0.0111 5.53-0.00932 11.1-6.25e-5 16.6 0.0133 5.82 0.0114 11.6 0.0072 17.5 0.00525 9.76-8.8e-4 19.5 0.0101 29.3 0.0286 11.3 0.0212 22.5 0.0247 33.8 0.0184 10.9-0.00571 21.7-2.69e-5 32.6 0.0112 4.61 0.00462 9.21 0.00553 13.8 0.00341 5.43-0.0019 10.9 0.00632 16.3 0.0221 1.98 0.00421 3.96 0.00512 5.95 0.00231 14.8-0.0178 29.2 0.426 43.3 5.34 0.888 0.305 1.78 0.609 2.69 0.923 27.5 9.85 50.5 30.7 63.2 57 9.21 19.9 11.1 40.1 11 61.8 0.00244 2 0.00616 3.99 0.0111 5.99 0.0093 5.36 7.95e-5 10.7-0.0133 16.1-0.0114 5.64-0.0072 11.3-0.00525 16.9 8.79e-4 9.46-0.0101 18.9-0.0286 28.4-0.0212 10.9-0.0247 21.8-0.0184 32.7 0.00572 10.5 2.4e-5 21.1-0.0112 31.6-0.00461 4.46-0.00553 8.93-0.00341 13.4 0.0019 5.26-0.00634 10.5-0.0221 15.8-0.0042 1.92-0.00512 3.84-0.00231 5.76 0.0382 30.7-6.33 56.9-25.3 81.5-0.826 1.18-0.826 1.18-1.67 2.39-0.44 0.532-0.879 1.06-1.33 1.61h-2c-0.244 0.575-0.487 1.15-0.738 1.74-9.22 16.5-34.6 26.3-51.5 31.2-14.6 4.05-29.1 4.18-44.2 4.18-1.95 3e-3 -3.91 0.0064-5.86 0.0102-5.28 0.00879-10.6 0.0112-15.9 0.0118-3.31 7.13e-4 -6.62 0.00285-9.93 0.0055-11.6 0.00924-23.1 0.0133-34.7 0.0125-10.7-6e-4 -21.5 0.00994-32.2 0.0257-9.26 0.0131-18.5 0.0184-27.8 0.0178-5.51-2.54e-4 -11 0.00252-16.5 0.0132-5.19 0.00976-10.4 0.00971-15.6 0.00248-1.89-0.00104-3.78 0.00126-5.68 0.00736-31 0.0933-57.3-6.16-82.4-25.3-0.764-0.532-1.53-1.06-2.32-1.61-0.556-0.458-1.11-0.915-1.68-1.39v-2c-0.563-0.232-1.13-0.464-1.71-0.703-16.1-9.09-26.9-34.7-31.7-51.2-3.67-13.4-4-26.6-3.96-40.3-0.00408-2.08-0.00942-4.15-0.0159-6.23-0.0136-5.58-0.00842-11.2 0.00114-16.8 0.00765-5.87 5.35e-4 -11.7-0.00416-17.6-0.00544-9.86 0.00169-19.7 0.016-29.6 0.0163-11.4 0.011-22.7-0.00548-34.1-0.0137-9.8-0.0155-19.6-0.00768-29.4 0.00465-5.83 0.00537-11.7-0.00461-17.5-0.00873-5.49-0.00254-11 0.0147-16.5 0.00393-2 0.00289-4-0.00379-6-0.045-14.9 1.16-29 6.02-43.2 0.252-0.741 0.505-1.48 0.765-2.25 10.2-28.5 32.6-50.8 59.6-63.8 18.1-8.05 36.6-9.45 56.2-9.37zm-39 87.2c-7.22 8.81-9.51 18.4-9.45 29.6-0.00383 0.808-0.00765 1.62-0.0116 2.45-0.0102 2.68-0.00636 5.36-0.00237 8.04-0.00435 1.93-0.00954 3.87-0.0155 5.8-0.0134 5.23-0.014 10.5-0.0114 15.7 0.00107 4.38-0.00382 8.75-0.00861 13.1-0.0111 10.3-0.0115 20.7-0.00549 31 0.00604 10.6-0.00627 21.3-0.0276 31.9-0.0176 9.15-0.0236 18.3-0.0204 27.4 0.00181 5.46-7.77e-4 10.9-0.0147 16.4-0.0126 5.13-0.0106 10.3 0.00241 15.4 0.00236 1.88-3.31e-4 3.75-0.00862 5.63-0.0626 15.3 0.696 27.7 11.4 39.6 8.93 8.61 20 11.2 32.1 11.1 0.797 0.00297 1.59 0.00594 2.42 9e-3 2.66 0.00865 5.32 0.0102 7.99 0.0117 1.91 0.00463 3.82 0.00966 5.74 0.015 5.19 0.0131 10.4 0.0196 15.6 0.024 3.25 0.00293 6.49 0.00704 9.74 0.0115 10.2 0.0137 20.3 0.0233 30.5 0.0272 11.7 0.00448 23.4 0.022 35.2 0.051 9.07 0.0217 18.1 0.0317 27.2 0.033 5.41 0.00105 10.8 0.0069 16.2 0.0248 5.09 0.0165 10.2 0.0186 15.3 0.00986 1.86-7.67e-4 3.72 0.00353 5.59 0.0135 14.7 0.0738 27.6-0.702 39.5-10.4 8.88-8.89 12.1-19.6 12.1-31.9-0.00155-0.728-0.0031-1.46-0.00469-2.2 0.00227-0.791 0.00453-1.58 0.00687-2.4 0.0063-2.64 0.00551-5.27 0.00469-7.91 0.00299-1.9 0.0064-3.79 0.0102-5.69 0.00882-5.14 0.0112-10.3 0.0118-15.4 7.12e-4 -3.21 0.00285-6.43 0.0055-9.64 0.00925-11.2 0.0133-22.4 0.0125-33.7-6.01e-4 -10.4 0.00995-20.9 0.0257-31.3 0.0131-8.98 0.0184-18 0.0178-26.9-2.55e-4 -5.36 0.00257-10.7 0.0132-16.1 0.00971-5.04 0.00974-10.1 0.00248-15.1-0.00104-1.85 0.0013-3.69 0.00736-5.54 0.0449-14.6-0.132-28.9-10.4-40.5-9.13-8.48-19.1-11.9-31.4-11.9-0.821-0.00383-1.64-0.00765-2.49-0.0116-2.73-0.0103-5.46-0.00635-8.19-0.00237-1.97-0.00435-3.93-0.00953-5.9-0.0155-5.32-0.0134-10.6-0.014-16-0.0114-4.45 0.00107-8.9-0.00382-13.4-0.00861-10.5-0.0111-21-0.0115-31.5-0.00549-10.8 0.00604-21.6-0.00627-32.5-0.0276-9.3-0.0176-18.6-0.0236-27.9-0.0204-5.55 0.00181-11.1-7.97e-4 -16.7-0.0147-5.22-0.0126-10.4-0.0106-15.7 0.00241-1.91 0.00236-3.82-3.49e-4 -5.73-0.00862-15.6-0.0628-28.2 1.12-39.4 13.3z" fill="#000002"/>
<path transform="translate(449 338)" d="m0 0c0.855-0.00227 1.71-0.00453 2.59-0.00687 2.84-0.00629 5.68-0.00551 8.52-0.00469 2.05-0.00299 4.09-0.0064 6.14-0.0102 5.54-0.00881 11.1-0.0112 16.6-0.0118 3.47-7.12e-4 6.94-0.00285 10.4-0.0055 12.1-0.00924 24.2-0.0133 36.3-0.0125 11.3 6e-4 22.5-0.00994 33.8-0.0257 9.69-0.0131 19.4-0.0184 29.1-0.0178 5.78 2.54e-4 11.6-0.00254 17.3-0.0132 5.44-0.00974 10.9-0.00972 16.3-0.00248 1.99 0.00104 3.97-0.00127 5.96-0.00736 33.4-0.0956 62.3 8.39 86.8 32.1 23.4 23.3 33.2 52.9 33.4 85.4 0.00361 2.72-0.00243 5.44-0.00877 8.16 0.00272 1.99 0.00628 3.97 0.0106 5.96 0.00904 5.34 0.00562 10.7-7.58e-4 16-0.00511 5.62-3.56e-4 11.2 0.00277 16.9 0.00363 9.44-0.00112 18.9-0.0107 28.3-0.0109 10.9-0.00735 21.7 0.00365 32.6 0.00911 9.38 0.0103 18.8 0.00512 28.1-0.0031 5.58-0.00358 11.2 0.00307 16.7 0.00582 5.25 0.00169 10.5-0.00979 15.7-0.00262 1.91-0.00193 3.83 0.00253 5.74 0.0713 33.8-8.35 65-32.5 89.7-26.4 25.8-58.5 32.9-94.2 32.9-1.95 3e-3 -3.91 0.0064-5.86 0.0102-5.28 0.00879-10.6 0.0112-15.9 0.0118-3.31 7.13e-4 -6.62 0.00285-9.93 0.0055-11.6 0.00924-23.1 0.0133-34.7 0.0125-10.7-6e-4 -21.5 0.00994-32.2 0.0257-9.26 0.0131-18.5 0.0184-27.8 0.0178-5.51-2.54e-4 -11 0.00252-16.5 0.0132-5.19 0.00976-10.4 0.00971-15.6 0.00248-1.89-0.00104-3.78 0.00126-5.68 0.00736-29.1 0.0878-54.3-5.44-78.4-22.3-0.874-0.606-1.75-1.21-2.65-1.84-3.97-2.86-3.97-2.86-5.35-4.16v-2c-0.563-0.232-1.13-0.464-1.71-0.703-17.1-9.66-27.1-35.6-32.3-53.3-2.43-8.9-3.15-17.8-3.14-27-0.00297-0.862-0.00594-1.72-9e-3 -2.61-0.00861-2.86-0.0102-5.73-0.0117-8.59-0.00463-2.06-0.00966-4.13-0.015-6.19-0.0131-5.59-0.0196-11.2-0.024-16.8-0.00294-3.5-0.00705-7-0.0115-10.5-0.0137-11-0.0233-21.9-0.0272-32.9-0.00448-12.6-0.022-25.3-0.051-37.9-0.0217-9.78-0.0317-19.6-0.033-29.3-0.00104-5.83-0.00686-11.7-0.0248-17.5-0.0166-5.49-0.0186-11-0.00986-16.5 7.65e-4 -2-0.0035-4.01-0.0135-6.01-0.0696-14.9 1.13-29 6-43.2 0.252-0.741 0.505-1.48 0.765-2.25 10.2-28.4 32.5-50.8 59.5-63.6 14.4-6.49 29.4-9.28 45.1-9.25zm-29.8 89.6c-6.01 8.19-7.27 16.8-7.27 26.8-0.00368 0.809-0.00735 1.62-0.0111 2.45-0.011 2.7-0.0149 5.4-0.0187 8.1-0.00627 1.94-0.0129 3.88-0.0199 5.82-0.021 6.37-0.0314 12.7-0.0414 19.1-0.00405 2.2-0.00817 4.39-0.0124 6.59-0.019 10.3-0.0333 20.6-0.0416 31-0.00977 11.9-0.0361 23.8-0.0765 35.7-0.0302 9.2-0.045 18.4-0.0483 27.6-0.00234 5.49-0.0112 11-0.0365 16.5-0.0234 5.17-0.0275 10.3-0.0172 15.5 4.93e-4 1.89-0.00576 3.78-0.0196 5.67-0.0957 13.9 0.523 26.7 10.2 37.6 12.7 12.1 26.9 12.7 43.5 12.6 1.92 0.00407 3.85 0.00942 5.77 0.0159 5.2 0.0136 10.4 0.0084 15.6-0.00114 5.45-0.00763 10.9-5.42e-4 16.4 0.00416 9.16 0.00545 18.3-0.00171 27.5-0.016 10.6-0.0163 21.1-0.011 31.7 0.00548 9.09 0.0136 18.2 0.0155 27.3 0.00768 5.42-0.00466 10.8-0.00535 16.3 0.00461 5.1 0.00871 10.2 0.00257 15.3-0.0147 1.86-0.00394 3.73-0.00287 5.59 0.00379 14.5 0.0471 27.9-0.568 39.5-10.4 8.94-9.93 12.2-19.8 12.1-33.1 0.00227-0.794 0.00453-1.59 0.00687-2.41 0.00631-2.65 0.00551-5.31 0.00469-7.96 0.00299-1.91 0.0064-3.81 0.0102-5.72 0.00883-5.17 0.0112-10.3 0.0118-15.5 7.11e-4 -3.23 0.00285-6.47 0.0055-9.7 0.00925-11.3 0.0133-22.6 0.0125-33.9-6e-4 -10.5 0.00995-21 0.0257-31.5 0.0131-9.03 0.0184-18.1 0.0178-27.1-2.55e-4 -5.39 0.00257-10.8 0.0132-16.2 0.00971-5.07 0.00974-10.1 0.00248-15.2-0.00104-1.86 0.0013-3.71 0.00736-5.57 0.0447-14.6-0.0879-28.9-10.4-40.6-9.12-8.48-19.1-11.9-31.4-11.9-0.819-0.00453-1.64-0.00906-2.48-0.0137-2.72-0.0126-5.45-0.011-8.17-0.00937-1.96-0.00599-3.92-0.0128-5.89-0.0204-5.32-0.0176-10.6-0.0224-15.9-0.0236-3.33-0.00142-6.65-0.0057-9.98-0.011-11.6-0.0185-23.2-0.0267-34.8-0.0251-10.8 0.0012-21.6-0.0199-32.4-0.0515-9.29-0.0262-18.6-0.0369-27.9-0.0356-5.54 5.09e-4 -11.1-0.00512-16.6-0.0264-5.22-0.0194-10.4-0.0195-15.7-0.00497-1.91 0.00208-3.81-0.00258-5.72-0.0147-17.1-0.102-30.3 2.11-41.8 15.9z" fill="#000002"/>
<path transform="translate(959 338)" d="m0 0c0.856-0.00227 1.71-0.00453 2.59-0.00687 2.84-0.00628 5.67-0.00551 8.51-0.00469 2.05-3e-3 4.09-0.0064 6.14-0.0102 5.54-0.0088 11.1-0.0112 16.6-0.0118 3.47-7.13e-4 6.93-0.00285 10.4-0.0055 12.1-0.00924 24.2-0.0133 36.3-0.0125 11.3 6e-4 22.5-0.00995 33.8-0.0257 9.69-0.0131 19.4-0.0184 29.1-0.0178 5.78 2.54e-4 11.6-0.00254 17.3-0.0132 5.44-0.00974 10.9-0.00972 16.3-0.00248 1.99 0.00104 3.97-0.00127 5.96-0.00736 35.5-0.102 64.4 9.85 89.9 35.3 22.6 22.5 30.1 53.2 30.1 84.1-3.49e-4 1.85-8.11e-4 3.7-0.00137 5.55 3e-3 1.97 0.0064 3.95 0.0102 5.92 0.0088 5.34 0.0112 10.7 0.0118 16 7.13e-4 3.34 0.00285 6.69 0.0055 10 0.00924 11.7 0.0133 23.4 0.0125 35.1-6e-4 10.9 0.00994 21.7 0.0257 32.6 0.0131 9.35 0.0184 18.7 0.0178 28-2.54e-4 5.57 0.00253 11.1 0.0132 16.7 0.00976 5.24 0.00971 10.5 0.00248 15.7-0.00104 1.91 0.00126 3.82 0.00736 5.74 0.0447 15-0.27 30.2-4.81 44.6-0.255 0.827-0.511 1.65-0.774 2.51-5.74 17.6-16.3 33.7-29.7 46.5h-2v2c-2.15 1.81-4.29 3.48-6.56 5.12-1.02 0.736-1.02 0.736-2.05 1.49-24.5 17.4-51.3 21.5-80.8 21.5-1.95 3e-3 -3.91 0.0064-5.86 0.0102-5.28 0.00879-10.6 0.0112-15.9 0.0118-3.31 7.13e-4 -6.62 0.00285-9.93 0.0055-11.6 0.00924-23.1 0.0133-34.7 0.0125-10.7-6e-4 -21.5 0.00994-32.2 0.0257-9.26 0.0131-18.5 0.0184-27.8 0.0178-5.51-2.54e-4 -11 0.00252-16.5 0.0132-5.19 0.00976-10.4 0.00971-15.6 0.00248-1.89-0.00104-3.78 0.00126-5.68 0.00736-33.6 0.101-62.8-7.57-88.4-30.3-0.684-0.601-1.37-1.2-2.07-1.82-19.4-18.2-31.9-45.9-33-72.4-0.0391-2.28-0.0489-4.55-0.0464-6.83-0.00297-0.862-0.00594-1.72-9e-3 -2.61-0.00861-2.86-0.0102-5.73-0.0117-8.59-0.00463-2.06-0.00966-4.13-0.015-6.19-0.0131-5.59-0.0196-11.2-0.024-16.8-0.00294-3.5-0.00705-7-0.0115-10.5-0.0137-11-0.0233-21.9-0.0272-32.9-0.00448-12.6-0.022-25.3-0.051-37.9-0.0217-9.78-0.0317-19.6-0.033-29.3-0.00104-5.83-0.00686-11.7-0.0248-17.5-0.0166-5.49-0.0186-11-0.00986-16.5 7.65e-4 -2-0.0035-4.01-0.0135-6.01-0.0696-14.9 1.13-29 6-43.2 0.25-0.739 0.5-1.48 0.758-2.24 4.14-11.6 10.5-22.5 18.6-31.8 0.687-0.807 1.37-1.61 2.08-2.45 15.6-17.9 34.1-29.1 56.9-35.6 0.743-0.217 1.49-0.433 2.25-0.656 8.1-2.22 16.5-2.49 24.8-2.48zm-27.9 87c-6.97 8.49-9.5 17.7-9.45 28.6-0.00453 0.814-0.00906 1.63-0.0137 2.47-0.0126 2.71-0.011 5.42-0.00937 8.13-0.00599 1.95-0.0128 3.9-0.0204 5.85-0.0176 5.29-0.0224 10.6-0.0236 15.9-0.00142 3.31-0.0057 6.61-0.011 9.92-0.0185 11.5-0.0267 23.1-0.0251 34.6 0.0012 10.7-0.0199 21.5-0.0515 32.2-0.0262 9.24-0.0369 18.5-0.0356 27.7 5.08e-4 5.51-0.00511 11-0.0264 16.5-0.0195 5.19-0.0195 10.4-0.00497 15.6 0.00208 1.9-0.00256 3.79-0.0147 5.69-0.0802 13.4 0.232 26.3 9.47 36.9 12.8 12.6 27.5 13.6 44.4 13.5 1.92 0.00379 3.85 0.0093 5.77 0.0164 5.19 0.0139 10.4 0.00284 15.6-0.0137 5.45-0.0139 10.9-0.00738 16.3-0.00387 9.15 0.0027 18.3-0.0107 27.4-0.034 10.6-0.0266 21.1-0.0284 31.7-0.0166 10.2 0.0108 20.4 0.00457 30.5-0.00956 4.32-0.00574 8.64-0.0057 13-9.35e-4 5.09 0.0048 10.2-0.00544 15.3-0.027 1.86-0.00553 3.72-0.00607 5.58-0.00105 15.6 0.0368 29.8-0.888 41.6-12.5 7.77-9.23 10.1-20.1 10-31.9 0.00227-0.79 0.00453-1.58 0.00687-2.39 0.00631-2.64 0.00551-5.28 0.00469-7.92 0.00299-1.9 0.0064-3.79 0.0102-5.69 0.00883-5.14 0.0112-10.3 0.0118-15.4 7.11e-4 -3.22 0.00285-6.43 0.0055-9.65 0.00925-11.2 0.0133-22.5 0.0125-33.7-6e-4 -10.5 0.00995-20.9 0.0257-31.4 0.0131-8.99 0.0184-18 0.0178-27-2.55e-4 -5.36 0.00257-10.7 0.0132-16.1 0.00971-5.05 0.00974-10.1 0.00248-15.1-0.00104-1.85 0.0013-3.69 0.00736-5.54 0.0496-16.1-0.799-30-12.4-42.4-11.4-10.7-25.7-10.2-40.4-10.1-1.97-0.00407-3.93-0.00942-5.9-0.0159-5.31-0.0136-10.6-0.0084-15.9 0.00114-5.57 0.00762-11.1 5.43e-4 -16.7-0.00416-9.36-0.00545-18.7 0.00171-28.1 0.016-10.8 0.0163-21.6 0.011-32.4-0.00548-9.29-0.0136-18.6-0.0155-27.9-0.00768-5.54 0.00467-11.1 0.00533-16.6-0.00461-5.21-0.00869-10.4-0.0026-15.6 0.0147-1.91 0.00395-3.81 0.00285-5.72-0.00379-15.6-0.0494-28.2 1.15-39.4 13.3z" fill="#000002"/>
<path transform="translate(970 848)" d="m0 0c2.06-0.00272 4.11-0.00628 6.17-0.0106 5.55-0.00906 11.1-0.00561 16.6 7.58e-4 5.83 0.00509 11.7 3.59e-4 17.5-0.00277 9.79-0.00363 19.6 0.00113 29.4 0.0107 11.3 0.0109 22.6 0.00736 33.9-0.00365 9.72-0.0091 19.4-0.0103 29.2-0.00512 5.79 0.0031 11.6 0.00357 17.4-0.00307 5.45-0.00582 10.9-0.0017 16.3 0.00979 1.99 0.00262 3.98 0.00192 5.97-0.00253 14.8-0.0301 29.2 0.408 43.4 5.33 0.884 0.302 1.77 0.603 2.68 0.914 12.1 4.31 23.2 10.6 32.9 19 0.819 0.699 1.64 1.4 2.48 2.12 21.6 18.9 35.6 44.9 38.3 73.6 0.48 7.61 0.353 15.2 0.351 22.9 3e-3 1.98 0.0064 3.97 0.0102 5.95 0.0088 5.37 0.0112 10.7 0.0118 16.1 7.13e-4 3.36 0.00285 6.72 0.0055 10.1 0.00924 11.7 0.0133 23.5 0.0125 35.2-6e-4 10.9 0.00994 21.8 0.0257 32.7 0.0131 9.4 0.0184 18.8 0.0178 28.2-2.54e-4 5.6 0.00253 11.2 0.0132 16.8 0.00976 5.28 0.00971 10.6 0.00248 15.8-0.00104 1.92 0.00126 3.85 0.00736 5.77 0.0445 15-0.259 30.2-4.81 44.7-0.256 0.828-0.512 1.66-0.776 2.51-4.42 13.5-11.5 25.6-20.7 36.5-0.82 0.995-1.64 1.99-2.48 3.02-18.8 22-46.5 34.3-75 36.8-7.6 0.459-15.2 0.36-22.8 0.357-1.94 3e-3 -3.89 0.0064-5.83 0.0102-5.25 0.00879-10.5 0.0112-15.8 0.0118-3.29 7.13e-4 -6.58 0.00285-9.87 0.0055-11.5 0.00924-23 0.0133-34.5 0.0125-10.7-6e-4 -21.4 0.00994-32 0.0257-9.2 0.0131-18.4 0.0184-27.6 0.0178-5.48-2.54e-4 -11 0.00252-16.4 0.0132-5.16 0.00977-10.3 0.0097-15.5 0.00248-1.88-0.00104-3.76 0.00125-5.64 0.00736-36 0.109-65.3-8.63-92.5-33.2-2.02-2.1-2.02-2.1-2.02-4.1h-2c-1.66-1.88-3.18-3.75-4.69-5.75-0.447-0.591-0.894-1.18-1.35-1.79-14.5-19.5-22.1-42.2-22.1-66.5-0.00297-0.862-0.00594-1.72-9e-3 -2.61-0.00861-2.86-0.0102-5.73-0.0117-8.59-0.00463-2.06-0.00966-4.13-0.015-6.19-0.0131-5.59-0.0196-11.2-0.024-16.8-0.00294-3.5-0.00705-7-0.0115-10.5-0.0137-11-0.0233-21.9-0.0272-32.9-0.00448-12.6-0.022-25.3-0.051-37.9-0.0217-9.78-0.0317-19.6-0.033-29.3-0.00104-5.83-0.00686-11.7-0.0248-17.5-0.0166-5.49-0.0186-11-0.00986-16.5 7.65e-4 -2-0.0035-4.01-0.0135-6.01-0.0696-14.9 1.13-29 6-43.2 0.252-0.741 0.505-1.48 0.765-2.25 9.69-27.1 30.7-49.4 56.4-62 5.02-2.34 10.1-4.34 15.4-6.15 1.02-0.358 1.02-0.358 2.06-0.724 13.5-4.4 27.5-4.19 41.5-4.16zm-38.5 87.1c-6.97 8.49-9.5 17.7-9.45 28.6-0.00453 0.814-0.00906 1.63-0.0137 2.47-0.0126 2.71-0.011 5.42-0.00937 8.13-0.00599 1.95-0.0128 3.9-0.0204 5.85-0.0176 5.29-0.0224 10.6-0.0236 15.9-0.00142 3.31-0.0057 6.61-0.011 9.92-0.0185 11.5-0.0267 23.1-0.0251 34.6 0.0012 10.7-0.0199 21.5-0.0515 32.2-0.0262 9.24-0.0369 18.5-0.0356 27.7 5.08e-4 5.51-0.00511 11-0.0264 16.5-0.0195 5.19-0.0195 10.4-0.00497 15.6 0.00208 1.9-0.00256 3.79-0.0147 5.69-0.081 13.5 0.29 26.2 9.59 37 8.83 8.92 19.2 13 31.8 13.1 0.737-8.66e-4 1.47-0.00173 2.23-0.00263 0.797 0.00297 1.59 0.00594 2.42 9e-3 2.66 0.00865 5.32 0.0102 7.99 0.0117 1.91 0.00463 3.82 0.00966 5.74 0.015 5.19 0.0131 10.4 0.0196 15.6 0.024 3.25 0.00293 6.49 0.00704 9.74 0.0115 10.2 0.0137 20.3 0.0233 30.5 0.0272 11.7 0.00448 23.4 0.022 35.2 0.051 9.07 0.0217 18.1 0.0317 27.2 0.033 5.41 0.00105 10.8 0.0069 16.2 0.0248 5.09 0.0165 10.2 0.0186 15.3 0.00986 1.86-7.67e-4 3.72 0.00353 5.59 0.0135 15.6 0.0784 29.8-0.835 41.6-12.4 7.78-9.24 10.1-20.2 10-32 0.00297-0.793 0.00594-1.59 9e-3 -2.4 0.00865-2.65 0.0102-5.3 0.0117-7.94 0.00463-1.9 0.00966-3.81 0.015-5.71 0.0131-5.16 0.0196-10.3 0.024-15.5 0.00293-3.23 0.00704-6.46 0.0115-9.69 0.0137-10.1 0.0233-20.2 0.0272-30.3 0.00448-11.7 0.022-23.3 0.051-35 0.0217-9.02 0.0317-18 0.033-27.1 0.00105-5.38 0.0069-10.8 0.0248-16.1 0.0165-5.07 0.0186-10.1 0.00986-15.2-7.67e-4 -1.85 0.00353-3.71 0.0135-5.56 0.075-14.9-0.583-29-11.3-40.5-8.82-8.16-18.8-11.3-30.6-11.2-0.821-0.00383-1.64-0.00765-2.49-0.0116-2.73-0.0103-5.46-0.00635-8.19-0.00237-1.97-0.00435-3.93-0.00953-5.9-0.0155-5.32-0.0134-10.6-0.014-16-0.0114-4.45 0.00107-8.9-0.00382-13.4-0.00861-10.5-0.0111-21-0.0115-31.5-0.00549-10.8 0.00604-21.6-0.00627-32.5-0.0276-9.3-0.0176-18.6-0.0236-27.9-0.0204-5.55 0.00181-11.1-7.97e-4 -16.7-0.0147-5.22-0.0126-10.4-0.0106-15.7 0.00241-1.91 0.00236-3.82-3.49e-4 -5.73-0.00862-15.6-0.0628-28.2 1.12-39.4 13.3z" fill="#000002"/>
</svg>
